<svg width="41" height="42" viewBox="0 0 41 42" fill="none" xmlns="http://www.w3.org/2000/svg">
<g opacity="0.6">
<mask id="path-1-inside-1_3319_231" fill="white">
<path d="M38.474 22.1025C39.8347 22.1025 40.9537 23.2098 40.784 24.5599C40.5649 26.304 40.1129 28.0146 39.4374 29.6455C38.4469 32.0369 36.995 34.2098 35.1647 36.0401C33.3344 37.8704 31.1615 39.3223 28.7701 40.3128C27.1393 40.9883 25.4287 41.4403 23.6846 41.6594C22.3345 41.8291 21.2271 40.7101 21.2271 39.3494V39.3494C21.2271 37.9886 22.3377 36.9064 23.6796 36.6807C24.7766 36.4961 25.8518 36.1879 26.8844 35.7602C28.6779 35.0173 30.3076 33.9284 31.6803 32.5557C33.053 31.1829 34.1419 29.5533 34.8849 27.7597C35.3126 26.7271 35.6208 25.6519 35.8053 24.5549C36.031 23.213 37.1132 22.1025 38.474 22.1025V22.1025Z"/>
</mask>
<path d="M38.474 22.1025C39.8347 22.1025 40.9537 23.2098 40.784 24.5599C40.5649 26.304 40.1129 28.0146 39.4374 29.6455C38.4469 32.0369 36.995 34.2098 35.1647 36.0401C33.3344 37.8704 31.1615 39.3223 28.7701 40.3128C27.1393 40.9883 25.4287 41.4403 23.6846 41.6594C22.3345 41.8291 21.2271 40.7101 21.2271 39.3494V39.3494C21.2271 37.9886 22.3377 36.9064 23.6796 36.6807C24.7766 36.4961 25.8518 36.1879 26.8844 35.7602C28.6779 35.0173 30.3076 33.9284 31.6803 32.5557C33.053 31.1829 34.1419 29.5533 34.8849 27.7597C35.3126 26.7271 35.6208 25.6519 35.8053 24.5549C36.031 23.213 37.1132 22.1025 38.474 22.1025V22.1025Z" stroke="#61AD32" stroke-width="6.10643" mask="url(#path-1-inside-1_3319_231)"/>
</g>
<mask id="path-2-inside-2_3319_231" fill="white">
<path d="M2.46389 20.5863C1.10315 20.5863 -0.0158025 19.4789 0.153849 18.1288C0.373003 16.3847 0.824946 14.6741 1.50044 13.0433C2.491 10.6519 3.94288 8.47895 5.77318 6.64864C7.60348 4.81833 9.77637 3.36644 12.1678 2.37588C13.7986 1.70038 15.5092 1.24844 17.2533 1.02928C18.6034 0.859629 19.7107 1.97859 19.7107 3.33933C19.7107 4.70008 18.6001 5.78229 17.2583 6.00803C16.1613 6.19257 15.0861 6.50078 14.0535 6.92848C12.26 7.67139 10.6303 8.76031 9.25757 10.133C7.88484 11.5058 6.79593 13.1355 6.05302 14.929C5.62531 15.9616 5.31711 17.0368 5.13257 18.1338C4.90683 19.4757 3.82463 20.5863 2.46389 20.5863Z"/>
</mask>
<path d="M2.46389 20.5863C1.10315 20.5863 -0.0158025 19.4789 0.153849 18.1288C0.373003 16.3847 0.824946 14.6741 1.50044 13.0433C2.491 10.6519 3.94288 8.47895 5.77318 6.64864C7.60348 4.81833 9.77637 3.36644 12.1678 2.37588C13.7986 1.70038 15.5092 1.24844 17.2533 1.02928C18.6034 0.859629 19.7107 1.97859 19.7107 3.33933C19.7107 4.70008 18.6001 5.78229 17.2583 6.00803C16.1613 6.19257 15.0861 6.50078 14.0535 6.92848C12.26 7.67139 10.6303 8.76031 9.25757 10.133C7.88484 11.5058 6.79593 13.1355 6.05302 14.929C5.62531 15.9616 5.31711 17.0368 5.13257 18.1338C4.90683 19.4757 3.82463 20.5863 2.46389 20.5863Z" stroke="#61AD32" stroke-width="6.10643" mask="url(#path-2-inside-2_3319_231)"/>
<g opacity="0.3">
<mask id="path-3-inside-3_3319_231" fill="white">
<path d="M21.2271 3.33934C21.2271 1.97859 22.3345 0.85963 23.6846 1.02928C25.4287 1.24844 27.1393 1.70038 28.7701 2.37588C31.1615 3.36644 33.3344 4.81833 35.1647 6.64864C36.995 8.47895 38.4469 10.6519 39.4374 13.0433C40.1129 14.6741 40.5649 16.3847 40.784 18.1288C40.9537 19.4789 39.8347 20.5863 38.474 20.5863C37.1132 20.5863 36.031 19.4757 35.8053 18.1338C35.6208 17.0368 35.3126 15.9616 34.8849 14.929C34.1419 13.1355 33.053 11.5058 31.6803 10.133C30.3076 8.76031 28.6779 7.67139 26.8844 6.92848C25.8518 6.50078 24.7766 6.19258 23.6796 6.00803C22.3377 5.78229 21.2271 4.70008 21.2271 3.33934Z"/>
</mask>
<path d="M21.2271 3.33934C21.2271 1.97859 22.3345 0.85963 23.6846 1.02928C25.4287 1.24844 27.1393 1.70038 28.7701 2.37588C31.1615 3.36644 33.3344 4.81833 35.1647 6.64864C36.995 8.47895 38.4469 10.6519 39.4374 13.0433C40.1129 14.6741 40.5649 16.3847 40.784 18.1288C40.9537 19.4789 39.8347 20.5863 38.474 20.5863C37.1132 20.5863 36.031 19.4757 35.8053 18.1338C35.6208 17.0368 35.3126 15.9616 34.8849 14.929C34.1419 13.1355 33.053 11.5058 31.6803 10.133C30.3076 8.76031 28.6779 7.67139 26.8844 6.92848C25.8518 6.50078 24.7766 6.19258 23.6796 6.00803C22.3377 5.78229 21.2271 4.70008 21.2271 3.33934Z" stroke="#61AD32" stroke-width="6.10643" mask="url(#path-3-inside-3_3319_231)"/>
</g>
<mask id="path-4-inside-4_3319_231" fill="white">
<path d="M19.7107 39.3494C19.7107 40.7101 18.6034 41.8291 17.2533 41.6594C15.5092 41.4403 13.7986 40.9883 12.1678 40.3128C9.77637 39.3223 7.60348 37.8704 5.77318 36.0401C3.94287 34.2098 2.491 32.0369 1.50044 29.6454C0.824942 28.0146 0.373 26.304 0.153846 24.5599C-0.0158052 23.2098 1.10315 22.1025 2.46389 22.1025C3.82463 22.1025 4.90683 23.213 5.13257 24.5549C5.31711 25.6519 5.62531 26.7271 6.05301 27.7597C6.79592 29.5533 7.88483 31.1829 9.25756 32.5557C10.6303 33.9284 12.26 35.0173 14.0535 35.7602C15.0861 36.1879 16.1613 36.4961 17.2582 36.6807C18.6001 36.9064 19.7107 37.9886 19.7107 39.3494Z"/>
</mask>
<path d="M19.7107 39.3494C19.7107 40.7101 18.6034 41.8291 17.2533 41.6594C15.5092 41.4403 13.7986 40.9883 12.1678 40.3128C9.77637 39.3223 7.60348 37.8704 5.77318 36.0401C3.94287 34.2098 2.491 32.0369 1.50044 29.6454C0.824942 28.0146 0.373 26.304 0.153846 24.5599C-0.0158052 23.2098 1.10315 22.1025 2.46389 22.1025C3.82463 22.1025 4.90683 23.213 5.13257 24.5549C5.31711 25.6519 5.62531 26.7271 6.05301 27.7597C6.79592 29.5533 7.88483 31.1829 9.25756 32.5557C10.6303 33.9284 12.26 35.0173 14.0535 35.7602C15.0861 36.1879 16.1613 36.4961 17.2582 36.6807C18.6001 36.9064 19.7107 37.9886 19.7107 39.3494Z" stroke="#61AD32" stroke-width="6.10643" mask="url(#path-4-inside-4_3319_231)"/>
<g clip-path="url(#clip0_3319_231)">
<path d="M17.4365 22.1025L18.9527 23.6187L21.9851 20.5863" stroke="#61AD32" stroke-width="0.381652" stroke-linecap="round" stroke-linejoin="round"/>
<path d="M19.711 15.2795C21.4818 16.8462 23.793 17.6619 26.1549 17.5538C26.4987 18.7236 26.604 19.9506 26.4643 21.1618C26.3246 22.373 25.9428 23.5438 25.3417 24.6046C24.7406 25.6654 23.9324 26.5945 22.9651 27.3368C21.9978 28.0791 20.8912 28.6193 19.711 28.9254C18.5308 28.6193 17.4242 28.0791 16.4569 27.3368C15.4896 26.5945 14.6814 25.6654 14.0803 24.6046C13.4792 23.5438 13.0974 22.373 12.9577 21.1618C12.818 19.9506 12.9233 18.7236 13.2671 17.5538C15.629 17.6619 17.9402 16.8462 19.711 15.2795" stroke="#61AD32" stroke-width="0.381652" stroke-linecap="round" stroke-linejoin="round"/>
</g>
<defs>
<clipPath id="clip0_3319_231">
<rect width="18.1945" height="18.1945" fill="white" transform="translate(10.6136 13.0052)"/>
</clipPath>
</defs>
</svg>
