<svg width="41" height="42" viewBox="0 0 41 42" fill="none" xmlns="http://www.w3.org/2000/svg">
<mask id="path-1-inside-1_3319_222" fill="white">
<path d="M38.474 22.1647C39.8347 22.1647 40.9537 23.272 40.784 24.6222C40.5649 26.3663 40.1129 28.0769 39.4374 29.7077C38.4469 32.0991 36.995 34.272 35.1647 36.1023C33.3344 37.9327 31.1615 39.3845 28.7701 40.3751C27.1393 41.0506 25.4287 41.5025 23.6846 41.7217C22.3345 41.8914 21.2271 40.7724 21.2271 39.4116C21.2271 38.0509 22.3377 36.9687 23.6796 36.743C24.7766 36.5584 25.8518 36.2502 26.8844 35.8225C28.6779 35.0796 30.3076 33.9907 31.6803 32.6179C33.053 31.2452 34.1419 29.6155 34.8849 27.822C35.3126 26.7894 35.6208 25.7142 35.8053 24.6172C36.031 23.2753 37.1132 22.1647 38.474 22.1647Z"/>
</mask>
<path d="M38.474 22.1647C39.8347 22.1647 40.9537 23.272 40.784 24.6222C40.5649 26.3663 40.1129 28.0769 39.4374 29.7077C38.4469 32.0991 36.995 34.272 35.1647 36.1023C33.3344 37.9327 31.1615 39.3845 28.7701 40.3751C27.1393 41.0506 25.4287 41.5025 23.6846 41.7217C22.3345 41.8914 21.2271 40.7724 21.2271 39.4116C21.2271 38.0509 22.3377 36.9687 23.6796 36.743C24.7766 36.5584 25.8518 36.2502 26.8844 35.8225C28.6779 35.0796 30.3076 33.9907 31.6803 32.6179C33.053 31.2452 34.1419 29.6155 34.8849 27.822C35.3126 26.7894 35.6208 25.7142 35.8053 24.6172C36.031 23.2753 37.1132 22.1647 38.474 22.1647Z" stroke="#61AD32" stroke-width="6.10643" mask="url(#path-1-inside-1_3319_222)"/>
<mask id="path-2-inside-2_3319_222" fill="white">
<path d="M2.46389 20.6485C1.10315 20.6485 -0.0158025 19.5412 0.153849 18.1911C0.373003 16.447 0.824946 14.7363 1.50044 13.1055C2.491 10.7141 3.94288 8.54121 5.77318 6.71089C7.60348 4.88058 9.77637 3.4287 12.1678 2.43814C13.7986 1.76264 15.5092 1.31069 17.2533 1.09154C18.6034 0.921885 19.7107 2.04085 19.7107 3.40159C19.7107 4.76234 18.6001 5.84454 17.2583 6.07029C16.1613 6.25483 15.0861 6.56303 14.0535 6.99073C12.26 7.73365 10.6303 8.82256 9.25757 10.1953C7.88484 11.568 6.79593 13.1977 6.05302 14.9913C5.62531 16.0238 5.31711 17.0991 5.13257 18.196C4.90683 19.5379 3.82463 20.6485 2.46389 20.6485Z"/>
</mask>
<path d="M2.46389 20.6485C1.10315 20.6485 -0.0158025 19.5412 0.153849 18.1911C0.373003 16.447 0.824946 14.7363 1.50044 13.1055C2.491 10.7141 3.94288 8.54121 5.77318 6.71089C7.60348 4.88058 9.77637 3.4287 12.1678 2.43814C13.7986 1.76264 15.5092 1.31069 17.2533 1.09154C18.6034 0.921885 19.7107 2.04085 19.7107 3.40159C19.7107 4.76234 18.6001 5.84454 17.2583 6.07029C16.1613 6.25483 15.0861 6.56303 14.0535 6.99073C12.26 7.73365 10.6303 8.82256 9.25757 10.1953C7.88484 11.568 6.79593 13.1977 6.05302 14.9913C5.62531 16.0238 5.31711 17.0991 5.13257 18.196C4.90683 19.5379 3.82463 20.6485 2.46389 20.6485Z" stroke="#61AD32" stroke-width="6.10643" mask="url(#path-2-inside-2_3319_222)"/>
<g opacity="0.5">
<mask id="path-3-inside-3_3319_222" fill="white">
<path d="M21.2271 3.40159C21.2271 2.04085 22.3345 0.921886 23.6846 1.09154C25.4287 1.31069 27.1393 1.76264 28.7701 2.43814C31.1615 3.4287 33.3344 4.88058 35.1647 6.71089C36.995 8.54121 38.4469 10.7141 39.4374 13.1055C40.1129 14.7363 40.5649 16.447 40.784 18.1911C40.9537 19.5412 39.8347 20.6485 38.474 20.6485C37.1132 20.6485 36.031 19.5379 35.8053 18.1961C35.6208 17.0991 35.3126 16.0238 34.8849 14.9913C34.1419 13.1977 33.053 11.568 31.6803 10.1953C30.3076 8.82256 28.6779 7.73365 26.8844 6.99073C25.8518 6.56303 24.7766 6.25483 23.6796 6.07029C22.3377 5.84454 21.2271 4.76234 21.2271 3.40159Z"/>
</mask>
<path d="M21.2271 3.40159C21.2271 2.04085 22.3345 0.921886 23.6846 1.09154C25.4287 1.31069 27.1393 1.76264 28.7701 2.43814C31.1615 3.4287 33.3344 4.88058 35.1647 6.71089C36.995 8.54121 38.4469 10.7141 39.4374 13.1055C40.1129 14.7363 40.5649 16.447 40.784 18.1911C40.9537 19.5412 39.8347 20.6485 38.474 20.6485C37.1132 20.6485 36.031 19.5379 35.8053 18.1961C35.6208 17.0991 35.3126 16.0238 34.8849 14.9913C34.1419 13.1977 33.053 11.568 31.6803 10.1953C30.3076 8.82256 28.6779 7.73365 26.8844 6.99073C25.8518 6.56303 24.7766 6.25483 23.6796 6.07029C22.3377 5.84454 21.2271 4.76234 21.2271 3.40159Z" stroke="#61AD32" stroke-width="6.10643" mask="url(#path-3-inside-3_3319_222)"/>
</g>
<mask id="path-4-inside-4_3319_222" fill="white">
<path d="M19.7107 39.4116C19.7107 40.7724 18.6034 41.8914 17.2533 41.7217C15.5092 41.5025 13.7986 41.0506 12.1678 40.3751C9.77637 39.3845 7.60348 37.9327 5.77318 36.1023C3.94287 34.272 2.491 32.0991 1.50044 29.7077C0.824942 28.0769 0.373 26.3662 0.153846 24.6222C-0.0158052 23.272 1.10315 22.1647 2.46389 22.1647C3.82463 22.1647 4.90683 23.2753 5.13257 24.6172C5.31711 25.7142 5.62531 26.7894 6.05301 27.822C6.79592 29.6155 7.88483 31.2452 9.25756 32.6179C10.6303 33.9907 12.26 35.0796 14.0535 35.8225C15.0861 36.2502 16.1613 36.5584 17.2582 36.7429C18.6001 36.9687 19.7107 38.0509 19.7107 39.4116Z"/>
</mask>
<path d="M19.7107 39.4116C19.7107 40.7724 18.6034 41.8914 17.2533 41.7217C15.5092 41.5025 13.7986 41.0506 12.1678 40.3751C9.77637 39.3845 7.60348 37.9327 5.77318 36.1023C3.94287 34.272 2.491 32.0991 1.50044 29.7077C0.824942 28.0769 0.373 26.3662 0.153846 24.6222C-0.0158052 23.272 1.10315 22.1647 2.46389 22.1647C3.82463 22.1647 4.90683 23.2753 5.13257 24.6172C5.31711 25.7142 5.62531 26.7894 6.05301 27.822C6.79592 29.6155 7.88483 31.2452 9.25756 32.6179C10.6303 33.9907 12.26 35.0796 14.0535 35.8225C15.0861 36.2502 16.1613 36.5584 17.2582 36.7429C18.6001 36.9687 19.7107 38.0509 19.7107 39.4116Z" stroke="#61AD32" stroke-width="6.10643" mask="url(#path-4-inside-4_3319_222)"/>
<g clip-path="url(#clip0_3319_222)">
<path d="M17.4365 22.1647L18.9527 23.6809L21.9851 20.6485" stroke="#61AD32" stroke-width="0.381652" stroke-linecap="round" stroke-linejoin="round"/>
<path d="M19.711 15.3418C21.4818 16.9084 23.793 17.7242 26.1549 17.6161C26.4987 18.7858 26.604 20.0128 26.4643 21.224C26.3246 22.4353 25.9428 23.6061 25.3417 24.6669C24.7406 25.7277 23.9324 26.6568 22.9651 27.399C21.9978 28.1413 20.8912 28.6815 19.711 28.9877C18.5308 28.6815 17.4242 28.1413 16.4569 27.399C15.4896 26.6568 14.6814 25.7277 14.0803 24.6669C13.4792 23.6061 13.0974 22.4353 12.9577 21.224C12.818 20.0128 12.9233 18.7858 13.2671 17.6161C15.629 17.7242 17.9402 16.9084 19.711 15.3418" stroke="#61AD32" stroke-width="0.381652" stroke-linecap="round" stroke-linejoin="round"/>
</g>
<defs>
<clipPath id="clip0_3319_222">
<rect width="18.1945" height="18.1945" fill="white" transform="translate(10.6136 13.0674)"/>
</clipPath>
</defs>
</svg>
