<svg width="41" height="41" viewBox="0 0 41 41" fill="none" xmlns="http://www.w3.org/2000/svg">
<mask id="path-1-inside-1_3319_220" fill="white">
<path d="M38.474 21.227C39.8347 21.227 40.9537 22.3343 40.784 23.6844C40.5649 25.4285 40.1129 27.1392 39.4374 28.77C38.4469 31.1614 36.995 33.3343 35.1647 35.1646C33.3344 36.9949 31.1615 38.4468 28.7701 39.4374C27.1393 40.1129 25.4287 40.5648 23.6846 40.784C22.3345 40.9536 21.2271 39.8346 21.2271 38.4739C21.2271 37.1132 22.3377 36.031 23.6796 35.8052C24.7766 35.6207 25.8518 35.3125 26.8844 34.8848C28.6779 34.1418 30.3076 33.0529 31.6803 31.6802C33.053 30.3075 34.1419 28.6778 34.8849 26.8842C35.3126 25.8517 35.6208 24.7764 35.8053 23.6794C36.031 22.3376 37.1132 21.227 38.474 21.227Z"/>
</mask>
<path d="M38.474 21.227C39.8347 21.227 40.9537 22.3343 40.784 23.6844C40.5649 25.4285 40.1129 27.1392 39.4374 28.77C38.4469 31.1614 36.995 33.3343 35.1647 35.1646C33.3344 36.9949 31.1615 38.4468 28.7701 39.4374C27.1393 40.1129 25.4287 40.5648 23.6846 40.784C22.3345 40.9536 21.2271 39.8346 21.2271 38.4739C21.2271 37.1132 22.3377 36.031 23.6796 35.8052C24.7766 35.6207 25.8518 35.3125 26.8844 34.8848C28.6779 34.1418 30.3076 33.0529 31.6803 31.6802C33.053 30.3075 34.1419 28.6778 34.8849 26.8842C35.3126 25.8517 35.6208 24.7764 35.8053 23.6794C36.031 22.3376 37.1132 21.227 38.474 21.227Z" stroke="#61AD32" stroke-width="6.10643" mask="url(#path-1-inside-1_3319_220)"/>
<mask id="path-2-inside-2_3319_220" fill="white">
<path d="M2.46389 19.7108C1.10315 19.7108 -0.0158025 18.6034 0.153849 17.2533C0.373003 15.5092 0.824946 13.7986 1.50044 12.1678C2.491 9.77636 3.94288 7.60346 5.77318 5.77315C7.60348 3.94284 9.77637 2.49095 12.1678 1.50039C13.7986 0.824896 15.5092 0.372949 17.2533 0.153795C18.6034 -0.0158595 19.7107 1.1031 19.7107 2.46385C19.7107 3.82459 18.6001 4.9068 17.2583 5.13254C16.1613 5.31708 15.0861 5.62529 14.0535 6.05299C12.26 6.7959 10.6303 7.88482 9.25757 9.25755C7.88484 10.6303 6.79593 12.26 6.05302 14.0535C5.62531 15.0861 5.31711 16.1613 5.13257 17.2583C4.90683 18.6002 3.82463 19.7108 2.46389 19.7108Z"/>
</mask>
<path d="M2.46389 19.7108C1.10315 19.7108 -0.0158025 18.6034 0.153849 17.2533C0.373003 15.5092 0.824946 13.7986 1.50044 12.1678C2.491 9.77636 3.94288 7.60346 5.77318 5.77315C7.60348 3.94284 9.77637 2.49095 12.1678 1.50039C13.7986 0.824896 15.5092 0.372949 17.2533 0.153795C18.6034 -0.0158595 19.7107 1.1031 19.7107 2.46385C19.7107 3.82459 18.6001 4.9068 17.2583 5.13254C16.1613 5.31708 15.0861 5.62529 14.0535 6.05299C12.26 6.7959 10.6303 7.88482 9.25757 9.25755C7.88484 10.6303 6.79593 12.26 6.05302 14.0535C5.62531 15.0861 5.31711 16.1613 5.13257 17.2583C4.90683 18.6002 3.82463 19.7108 2.46389 19.7108Z" stroke="#61AD32" stroke-width="6.10643" mask="url(#path-2-inside-2_3319_220)"/>
<mask id="path-3-inside-3_3319_220" fill="white">
<path d="M21.2271 2.46385C21.2271 1.1031 22.3345 -0.0158586 23.6846 0.153796C25.4287 0.37295 27.1393 0.824897 28.7701 1.5004C31.1615 2.49095 33.3344 3.94284 35.1647 5.77315C36.995 7.60346 38.4469 9.77636 39.4374 12.1678C40.1129 13.7986 40.5649 15.5092 40.784 17.2533C40.9537 18.6034 39.8347 19.7108 38.474 19.7108C37.1132 19.7108 36.031 18.6002 35.8053 17.2583C35.6208 16.1613 35.3126 15.0861 34.8849 14.0535C34.1419 12.26 33.053 10.6303 31.6803 9.25756C30.3076 7.88482 28.6779 6.7959 26.8844 6.05299C25.8518 5.62529 24.7766 5.31709 23.6796 5.13254C22.3377 4.9068 21.2271 3.82459 21.2271 2.46385Z"/>
</mask>
<path d="M21.2271 2.46385C21.2271 1.1031 22.3345 -0.0158586 23.6846 0.153796C25.4287 0.37295 27.1393 0.824897 28.7701 1.5004C31.1615 2.49095 33.3344 3.94284 35.1647 5.77315C36.995 7.60346 38.4469 9.77636 39.4374 12.1678C40.1129 13.7986 40.5649 15.5092 40.784 17.2533C40.9537 18.6034 39.8347 19.7108 38.474 19.7108C37.1132 19.7108 36.031 18.6002 35.8053 17.2583C35.6208 16.1613 35.3126 15.0861 34.8849 14.0535C34.1419 12.26 33.053 10.6303 31.6803 9.25756C30.3076 7.88482 28.6779 6.7959 26.8844 6.05299C25.8518 5.62529 24.7766 5.31709 23.6796 5.13254C22.3377 4.9068 21.2271 3.82459 21.2271 2.46385Z" stroke="#61AD32" stroke-width="6.10643" mask="url(#path-3-inside-3_3319_220)"/>
<mask id="path-4-inside-4_3319_220" fill="white">
<path d="M19.7107 38.4739C19.7107 39.8346 18.6034 40.9536 17.2533 40.784C15.5092 40.5648 13.7986 40.1129 12.1678 39.4374C9.77637 38.4468 7.60348 36.9949 5.77318 35.1646C3.94287 33.3343 2.491 31.1614 1.50044 28.77C0.824942 27.1392 0.373 25.4285 0.153846 23.6844C-0.0158052 22.3343 1.10315 21.227 2.46389 21.227C3.82463 21.227 4.90683 22.3376 5.13257 23.6794C5.31711 24.7764 5.62531 25.8517 6.05301 26.8842C6.79592 28.6778 7.88483 30.3075 9.25756 31.6802C10.6303 33.0529 12.26 34.1418 14.0535 34.8848C15.0861 35.3125 16.1613 35.6207 17.2582 35.8052C18.6001 36.031 19.7107 37.1132 19.7107 38.4739Z"/>
</mask>
<path d="M19.7107 38.4739C19.7107 39.8346 18.6034 40.9536 17.2533 40.784C15.5092 40.5648 13.7986 40.1129 12.1678 39.4374C9.77637 38.4468 7.60348 36.9949 5.77318 35.1646C3.94287 33.3343 2.491 31.1614 1.50044 28.77C0.824942 27.1392 0.373 25.4285 0.153846 23.6844C-0.0158052 22.3343 1.10315 21.227 2.46389 21.227C3.82463 21.227 4.90683 22.3376 5.13257 23.6794C5.31711 24.7764 5.62531 25.8517 6.05301 26.8842C6.79592 28.6778 7.88483 30.3075 9.25756 31.6802C10.6303 33.0529 12.26 34.1418 14.0535 34.8848C15.0861 35.3125 16.1613 35.6207 17.2582 35.8052C18.6001 36.031 19.7107 37.1132 19.7107 38.4739Z" stroke="#61AD32" stroke-width="6.10643" mask="url(#path-4-inside-4_3319_220)"/>
<g clip-path="url(#clip0_3319_220)">
<path d="M17.4365 21.227L18.9527 22.7432L21.9851 19.7108" stroke="#61AD32" stroke-width="0.381652" stroke-linecap="round" stroke-linejoin="round"/>
<path d="M19.711 14.404C21.4818 15.9707 23.793 16.7864 26.1549 16.6783C26.4987 17.8481 26.604 19.0751 26.4643 20.2863C26.3246 21.4975 25.9428 22.6683 25.3417 23.7291C24.7406 24.7899 23.9324 25.719 22.9651 26.4613C21.9978 27.2036 20.8912 27.7438 19.711 28.0499C18.5308 27.7438 17.4242 27.2036 16.4569 26.4613C15.4896 25.719 14.6814 24.7899 14.0803 23.7291C13.4792 22.6683 13.0974 21.4975 12.9577 20.2863C12.818 19.0751 12.9233 17.8481 13.2671 16.6783C15.629 16.7864 17.9402 15.9707 19.711 14.404" stroke="#61AD32" stroke-width="0.381652" stroke-linecap="round" stroke-linejoin="round"/>
</g>
<defs>
<clipPath id="clip0_3319_220">
<rect width="18.1945" height="18.1945" fill="white" transform="translate(10.6136 12.1297)"/>
</clipPath>
</defs>
</svg>
