<svg width="41" height="42" viewBox="0 0 41 42" fill="none" xmlns="http://www.w3.org/2000/svg">
<g opacity="0.7">
<mask id="path-1-inside-1_3319_249" fill="white">
<path d="M38.474 21.978C39.8347 21.978 40.9537 23.0853 40.784 24.4354C40.5649 26.1795 40.1129 27.8901 39.4374 29.5209C38.4469 31.9124 36.995 34.0853 35.1647 35.9156C33.3344 37.7459 31.1615 39.1978 28.7701 40.1883C27.1393 40.8638 25.4287 41.3158 23.6846 41.5349C22.3345 41.7046 21.2271 40.5856 21.2271 39.2249C21.2271 37.8641 22.3377 36.7819 23.6796 36.5562C24.7766 36.3716 25.8518 36.0634 26.8844 35.6357C28.6779 34.8928 30.3076 33.8039 31.6803 32.4312C33.053 31.0584 34.1419 29.4288 34.8849 27.6352C35.3126 26.6026 35.6208 25.5274 35.8053 24.4304C36.031 23.0885 37.1132 21.978 38.474 21.978Z"/>
</mask>
<path d="M38.474 21.978C39.8347 21.978 40.9537 23.0853 40.784 24.4354C40.5649 26.1795 40.1129 27.8901 39.4374 29.5209C38.4469 31.9124 36.995 34.0853 35.1647 35.9156C33.3344 37.7459 31.1615 39.1978 28.7701 40.1883C27.1393 40.8638 25.4287 41.3158 23.6846 41.5349C22.3345 41.7046 21.2271 40.5856 21.2271 39.2249C21.2271 37.8641 22.3377 36.7819 23.6796 36.5562C24.7766 36.3716 25.8518 36.0634 26.8844 35.6357C28.6779 34.8928 30.3076 33.8039 31.6803 32.4312C33.053 31.0584 34.1419 29.4288 34.8849 27.6352C35.3126 26.6026 35.6208 25.5274 35.8053 24.4304C36.031 23.0885 37.1132 21.978 38.474 21.978Z" stroke="#F31A1A" stroke-width="6.10643" mask="url(#path-1-inside-1_3319_249)"/>
</g>
<mask id="path-2-inside-2_3319_249" fill="white">
<path d="M2.46389 20.4617C1.10315 20.4617 -0.0158025 19.3544 0.153849 18.0043C0.373003 16.2602 0.824946 14.5496 1.50044 12.9188C2.491 10.5273 3.94288 8.35445 5.77318 6.52413C7.60348 4.69382 9.77637 3.24194 12.1678 2.25138C13.7986 1.57588 15.5092 1.12393 17.2533 0.904779C18.6034 0.735125 19.7107 1.85409 19.7107 3.21483C19.7107 4.57558 18.6001 5.65778 17.2583 5.88353C16.1613 6.06807 15.0861 6.37627 14.0535 6.80397C12.26 7.54689 10.6303 8.6358 9.25757 10.0085C7.88484 11.3813 6.79593 13.0109 6.05302 14.8045C5.62531 15.8371 5.31711 16.9123 5.13257 18.0093C4.90683 19.3512 3.82463 20.4617 2.46389 20.4617Z"/>
</mask>
<path d="M2.46389 20.4617C1.10315 20.4617 -0.0158025 19.3544 0.153849 18.0043C0.373003 16.2602 0.824946 14.5496 1.50044 12.9188C2.491 10.5273 3.94288 8.35445 5.77318 6.52413C7.60348 4.69382 9.77637 3.24194 12.1678 2.25138C13.7986 1.57588 15.5092 1.12393 17.2533 0.904779C18.6034 0.735125 19.7107 1.85409 19.7107 3.21483C19.7107 4.57558 18.6001 5.65778 17.2583 5.88353C16.1613 6.06807 15.0861 6.37627 14.0535 6.80397C12.26 7.54689 10.6303 8.6358 9.25757 10.0085C7.88484 11.3813 6.79593 13.0109 6.05302 14.8045C5.62531 15.8371 5.31711 16.9123 5.13257 18.0093C4.90683 19.3512 3.82463 20.4617 2.46389 20.4617Z" stroke="#F31A1A" stroke-width="6.10643" mask="url(#path-2-inside-2_3319_249)"/>
<g opacity="0.5">
<mask id="path-3-inside-3_3319_249" fill="white">
<path d="M21.2271 3.21483C21.2271 1.85409 22.3345 0.735126 23.6846 0.90478C25.4287 1.12393 27.1393 1.57588 28.7701 2.25138C31.1615 3.24194 33.3344 4.69382 35.1647 6.52413C36.995 8.35445 38.4469 10.5273 39.4374 12.9188C40.1129 14.5496 40.5649 16.2602 40.784 18.0043C40.9537 19.3544 39.8347 20.4618 38.474 20.4618C37.1132 20.4618 36.031 19.3512 35.8053 18.0093C35.6208 16.9123 35.3126 15.8371 34.8849 14.8045C34.1419 13.0109 33.053 11.3813 31.6803 10.0085C30.3076 8.6358 28.6779 7.54689 26.8844 6.80397C25.8518 6.37627 24.7766 6.06807 23.6796 5.88353C22.3377 5.65778 21.2271 4.57558 21.2271 3.21483Z"/>
</mask>
<path d="M21.2271 3.21483C21.2271 1.85409 22.3345 0.735126 23.6846 0.90478C25.4287 1.12393 27.1393 1.57588 28.7701 2.25138C31.1615 3.24194 33.3344 4.69382 35.1647 6.52413C36.995 8.35445 38.4469 10.5273 39.4374 12.9188C40.1129 14.5496 40.5649 16.2602 40.784 18.0043C40.9537 19.3544 39.8347 20.4618 38.474 20.4618C37.1132 20.4618 36.031 19.3512 35.8053 18.0093C35.6208 16.9123 35.3126 15.8371 34.8849 14.8045C34.1419 13.0109 33.053 11.3813 31.6803 10.0085C30.3076 8.6358 28.6779 7.54689 26.8844 6.80397C25.8518 6.37627 24.7766 6.06807 23.6796 5.88353C22.3377 5.65778 21.2271 4.57558 21.2271 3.21483Z" stroke="#F31A1A" stroke-width="6.10643" mask="url(#path-3-inside-3_3319_249)"/>
</g>
<mask id="path-4-inside-4_3319_249" fill="white">
<path d="M19.7107 39.2249C19.7107 40.5856 18.6034 41.7046 17.2533 41.5349C15.5092 41.3158 13.7986 40.8638 12.1678 40.1883C9.77637 39.1978 7.60348 37.7459 5.77318 35.9156C3.94287 34.0853 2.49099 31.9124 1.50044 29.5209C0.824942 27.8901 0.372999 26.1795 0.153845 24.4354C-0.015805 23.0853 1.10315 21.978 2.46389 21.978V21.978C3.82463 21.978 4.90683 23.0885 5.13257 24.4304C5.31711 25.5274 5.62531 26.6026 6.05301 27.6352C6.79593 29.4288 7.88483 31.0584 9.25756 32.4312C10.6303 33.8039 12.26 34.8928 14.0535 35.6357C15.0861 36.0634 16.1613 36.3716 17.2582 36.5562C18.6001 36.7819 19.7107 37.8641 19.7107 39.2249V39.2249Z"/>
</mask>
<path d="M19.7107 39.2249C19.7107 40.5856 18.6034 41.7046 17.2533 41.5349C15.5092 41.3158 13.7986 40.8638 12.1678 40.1883C9.77637 39.1978 7.60348 37.7459 5.77318 35.9156C3.94287 34.0853 2.49099 31.9124 1.50044 29.5209C0.824942 27.8901 0.372999 26.1795 0.153845 24.4354C-0.015805 23.0853 1.10315 21.978 2.46389 21.978V21.978C3.82463 21.978 4.90683 23.0885 5.13257 24.4304C5.31711 25.5274 5.62531 26.6026 6.05301 27.6352C6.79593 29.4288 7.88483 31.0584 9.25756 32.4312C10.6303 33.8039 12.26 34.8928 14.0535 35.6357C15.0861 36.0634 16.1613 36.3716 17.2582 36.5562C18.6001 36.7819 19.7107 37.8641 19.7107 39.2249V39.2249Z" stroke="#F31A1A" stroke-width="6.10643" mask="url(#path-4-inside-4_3319_249)"/>
<g clip-path="url(#clip0_3319_249)">
<path d="M17.4365 21.978L18.9527 23.4942L21.9851 20.4617" stroke="#F31A1A" stroke-width="0.381652" stroke-linecap="round" stroke-linejoin="round"/>
<path d="M19.711 15.155C21.4818 16.7217 23.793 17.5374 26.1549 17.4293C26.4987 18.5991 26.604 19.826 26.4643 21.0373C26.3246 22.2485 25.9428 23.4193 25.3417 24.4801C24.7406 25.5409 23.9324 26.47 22.9651 27.2123C21.9978 27.9545 20.8912 28.4948 19.711 28.8009C18.5308 28.4948 17.4242 27.9545 16.4569 27.2123C15.4896 26.47 14.6814 25.5409 14.0803 24.4801C13.4792 23.4193 13.0974 22.2485 12.9577 21.0373C12.818 19.826 12.9233 18.5991 13.2671 17.4293C15.629 17.5374 17.9402 16.7217 19.711 15.155" stroke="#F31A1A" stroke-width="0.381652" stroke-linecap="round" stroke-linejoin="round"/>
</g>
<defs>
<clipPath id="clip0_3319_249">
<rect width="18.1945" height="18.1945" fill="white" transform="translate(10.6136 12.8807)"/>
</clipPath>
</defs>
</svg>
