<svg width="41" height="42" viewBox="0 0 41 42" fill="none" xmlns="http://www.w3.org/2000/svg">
<g opacity="0.4">
<mask id="path-1-inside-1_3319_240" fill="white">
<path d="M38.474 22.0402C39.8347 22.0402 40.9537 23.1475 40.784 24.4977C40.5649 26.2417 40.1129 27.9524 39.4374 29.5832C38.4469 31.9746 36.995 34.1475 35.1647 35.9778C33.3344 37.8081 31.1615 39.26 28.7701 40.2506C27.1393 40.9261 25.4287 41.378 23.6846 41.5972C22.3345 41.7668 21.2271 40.6479 21.2271 39.2871C21.2271 37.9264 22.3377 36.8442 23.6796 36.6184C24.7766 36.4339 25.8518 36.1257 26.8844 35.698C28.6779 34.9551 30.3076 33.8662 31.6803 32.4934C33.053 31.1207 34.1419 29.491 34.8849 27.6975C35.3126 26.6649 35.6208 25.5896 35.8053 24.4927C36.031 23.1508 37.1132 22.0402 38.474 22.0402Z"/>
</mask>
<path d="M38.474 22.0402C39.8347 22.0402 40.9537 23.1475 40.784 24.4977C40.5649 26.2417 40.1129 27.9524 39.4374 29.5832C38.4469 31.9746 36.995 34.1475 35.1647 35.9778C33.3344 37.8081 31.1615 39.26 28.7701 40.2506C27.1393 40.9261 25.4287 41.378 23.6846 41.5972C22.3345 41.7668 21.2271 40.6479 21.2271 39.2871C21.2271 37.9264 22.3377 36.8442 23.6796 36.6184C24.7766 36.4339 25.8518 36.1257 26.8844 35.698C28.6779 34.9551 30.3076 33.8662 31.6803 32.4934C33.053 31.1207 34.1419 29.491 34.8849 27.6975C35.3126 26.6649 35.6208 25.5896 35.8053 24.4927C36.031 23.1508 37.1132 22.0402 38.474 22.0402Z" stroke="#F31A1A" stroke-width="6.10643" mask="url(#path-1-inside-1_3319_240)"/>
</g>
<mask id="path-2-inside-2_3319_240" fill="white">
<path d="M2.46389 20.524C1.10315 20.524 -0.0158025 19.4167 0.153849 18.0666C0.373003 16.3225 0.824946 14.6118 1.50044 12.981C2.491 10.5896 3.94288 8.4167 5.77318 6.58638C7.60348 4.75607 9.77637 3.30419 12.1678 2.31363C13.7986 1.63813 15.5092 1.18618 17.2533 0.967028C18.6034 0.797373 19.7107 1.91633 19.7107 3.27708C19.7107 4.63782 18.6001 5.72003 17.2583 5.94578C16.1613 6.13032 15.0861 6.43852 14.0535 6.86622C12.26 7.60914 10.6303 8.69805 9.25757 10.0708C7.88484 11.4435 6.79593 13.0732 6.05302 14.8668C5.62531 15.8993 5.31711 16.9746 5.13257 18.0715C4.90683 19.4134 3.82463 20.524 2.46389 20.524Z"/>
</mask>
<path d="M2.46389 20.524C1.10315 20.524 -0.0158025 19.4167 0.153849 18.0666C0.373003 16.3225 0.824946 14.6118 1.50044 12.981C2.491 10.5896 3.94288 8.4167 5.77318 6.58638C7.60348 4.75607 9.77637 3.30419 12.1678 2.31363C13.7986 1.63813 15.5092 1.18618 17.2533 0.967028C18.6034 0.797373 19.7107 1.91633 19.7107 3.27708C19.7107 4.63782 18.6001 5.72003 17.2583 5.94578C16.1613 6.13032 15.0861 6.43852 14.0535 6.86622C12.26 7.60914 10.6303 8.69805 9.25757 10.0708C7.88484 11.4435 6.79593 13.0732 6.05302 14.8668C5.62531 15.8993 5.31711 16.9746 5.13257 18.0715C4.90683 19.4134 3.82463 20.524 2.46389 20.524Z" stroke="#F31A1A" stroke-width="6.10643" mask="url(#path-2-inside-2_3319_240)"/>
<g opacity="0.1">
<mask id="path-3-inside-3_3319_240" fill="white">
<path d="M21.2271 3.27708C21.2271 1.91634 22.3345 0.797374 23.6846 0.967029C25.4287 1.18618 27.1393 1.63813 28.7701 2.31363C31.1615 3.30419 33.3344 4.75607 35.1647 6.58638C36.995 8.4167 38.4469 10.5896 39.4374 12.981C40.1129 14.6118 40.5649 16.3225 40.784 18.0666C40.9537 19.4167 39.8347 20.524 38.474 20.524C37.1132 20.524 36.031 19.4134 35.8053 18.0715C35.6208 16.9746 35.3126 15.8993 34.8849 14.8668C34.1419 13.0732 33.053 11.4435 31.6803 10.0708C30.3076 8.69805 28.6779 7.60914 26.8844 6.86622C25.8518 6.43852 24.7766 6.13032 23.6796 5.94578C22.3377 5.72003 21.2271 4.63782 21.2271 3.27708Z"/>
</mask>
<path d="M21.2271 3.27708C21.2271 1.91634 22.3345 0.797374 23.6846 0.967029C25.4287 1.18618 27.1393 1.63813 28.7701 2.31363C31.1615 3.30419 33.3344 4.75607 35.1647 6.58638C36.995 8.4167 38.4469 10.5896 39.4374 12.981C40.1129 14.6118 40.5649 16.3225 40.784 18.0666C40.9537 19.4167 39.8347 20.524 38.474 20.524C37.1132 20.524 36.031 19.4134 35.8053 18.0715C35.6208 16.9746 35.3126 15.8993 34.8849 14.8668C34.1419 13.0732 33.053 11.4435 31.6803 10.0708C30.3076 8.69805 28.6779 7.60914 26.8844 6.86622C25.8518 6.43852 24.7766 6.13032 23.6796 5.94578C22.3377 5.72003 21.2271 4.63782 21.2271 3.27708Z" stroke="#F31A1A" stroke-width="6.10643" mask="url(#path-3-inside-3_3319_240)"/>
</g>
<g opacity="0.7">
<mask id="path-4-inside-4_3319_240" fill="white">
<path d="M19.7107 39.2871C19.7107 40.6479 18.6034 41.7668 17.2533 41.5972C15.5092 41.378 13.7986 40.9261 12.1678 40.2506C9.77637 39.26 7.60348 37.8081 5.77318 35.9778C3.94287 34.1475 2.491 31.9746 1.50044 29.5832C0.824942 27.9524 0.373 26.2417 0.153846 24.4977C-0.0158052 23.1475 1.10315 22.0402 2.46389 22.0402C3.82463 22.0402 4.90683 23.1508 5.13257 24.4927C5.31711 25.5896 5.62531 26.6649 6.05301 27.6974C6.79592 29.491 7.88483 31.1207 9.25756 32.4934C10.6303 33.8662 12.26 34.9551 14.0535 35.698C15.0861 36.1257 16.1613 36.4339 17.2582 36.6184C18.6001 36.8442 19.7107 37.9264 19.7107 39.2871Z"/>
</mask>
<path d="M19.7107 39.2871C19.7107 40.6479 18.6034 41.7668 17.2533 41.5972C15.5092 41.378 13.7986 40.9261 12.1678 40.2506C9.77637 39.26 7.60348 37.8081 5.77318 35.9778C3.94287 34.1475 2.491 31.9746 1.50044 29.5832C0.824942 27.9524 0.373 26.2417 0.153846 24.4977C-0.0158052 23.1475 1.10315 22.0402 2.46389 22.0402C3.82463 22.0402 4.90683 23.1508 5.13257 24.4927C5.31711 25.5896 5.62531 26.6649 6.05301 27.6974C6.79592 29.491 7.88483 31.1207 9.25756 32.4934C10.6303 33.8662 12.26 34.9551 14.0535 35.698C15.0861 36.1257 16.1613 36.4339 17.2582 36.6184C18.6001 36.8442 19.7107 37.9264 19.7107 39.2871Z" stroke="#F31A1A" stroke-width="6.10643" mask="url(#path-4-inside-4_3319_240)"/>
</g>
<g opacity="0.7" clip-path="url(#clip0_3319_240)">
<path d="M17.4365 22.0402L18.9527 23.5564L21.9851 20.524" stroke="#F31A1A" stroke-width="0.381652" stroke-linecap="round" stroke-linejoin="round"/>
<path d="M19.711 15.2172C21.4818 16.7839 23.793 17.5996 26.1549 17.4916C26.4987 18.6613 26.604 19.8883 26.4643 21.0995C26.3246 22.3108 25.9428 23.4816 25.3417 24.5424C24.7406 25.6031 23.9324 26.5323 22.9651 27.2745C21.9978 28.0168 20.8912 28.557 19.711 28.8632C18.5308 28.557 17.4242 28.0168 16.4569 27.2745C15.4896 26.5323 14.6814 25.6031 14.0803 24.5424C13.4792 23.4816 13.0974 22.3108 12.9577 21.0995C12.818 19.8883 12.9233 18.6613 13.2671 17.4916C15.629 17.5996 17.9402 16.7839 19.711 15.2172" stroke="#F31A1A" stroke-width="0.381652" stroke-linecap="round" stroke-linejoin="round"/>
</g>
<defs>
<clipPath id="clip0_3319_240">
<rect width="18.1945" height="18.1945" fill="white" transform="translate(10.6136 12.9429)"/>
</clipPath>
</defs>
</svg>
