<svg width="193" height="243" viewBox="0 0 193 243" fill="none" xmlns="http://www.w3.org/2000/svg">
<g opacity="0.6" filter="url(#filter0_f_3305_141)">
<path d="M117.529 88.9165C125.813 88.9165 132.083 95.7079 132.083 103.478C132.083 112.489 124.733 118.083 117.5 118.083C115.108 118.083 112.454 117.441 110.325 116.184C109.581 115.732 108.954 115.396 108.152 115.659L105.206 116.535C104.463 116.769 103.792 116.184 104.01 115.396L104.988 112.124C105.148 111.671 105.119 111.189 104.885 110.81C103.631 108.502 102.917 105.975 102.917 103.522C102.917 95.8394 109.056 88.9165 117.529 88.9165ZM124.194 101.667C123.158 101.667 122.327 102.499 122.327 103.536C122.327 104.559 123.158 105.406 124.194 105.406C125.229 105.406 126.06 104.559 126.06 103.536C126.06 102.499 125.229 101.667 124.194 101.667ZM117.471 101.667C116.45 101.652 115.604 102.499 115.604 103.522C115.604 104.559 116.435 105.391 117.471 105.406C118.506 105.406 119.338 104.559 119.338 103.536C119.338 102.499 118.506 101.667 117.471 101.667ZM110.748 101.667C109.713 101.667 108.881 102.499 108.881 103.536C108.881 104.559 109.727 105.406 110.748 105.406C111.783 105.391 112.615 104.559 112.615 103.536C112.615 102.499 111.783 101.667 110.748 101.667Z" fill="#4D12EE"/>
</g>
<path d="M129.529 84.9165C137.813 84.9165 144.083 91.7079 144.083 99.4779C144.083 108.489 136.733 114.083 129.5 114.083C127.108 114.083 124.454 113.441 122.325 112.184C121.581 111.732 120.954 111.396 120.152 111.659L117.206 112.535C116.463 112.769 115.792 112.184 116.01 111.396L116.988 108.124C117.148 107.671 117.119 107.189 116.885 106.81C115.631 104.502 114.917 101.975 114.917 99.5217C114.917 91.8394 121.056 84.9165 129.529 84.9165ZM136.194 97.6669C135.158 97.6669 134.327 98.4994 134.327 99.5364C134.327 100.559 135.158 101.406 136.194 101.406C137.229 101.406 138.06 100.559 138.06 99.5364C138.06 98.4994 137.229 97.6669 136.194 97.6669ZM129.471 97.6669C128.45 97.6523 127.604 98.4994 127.604 99.5217C127.604 100.559 128.435 101.391 129.471 101.406C130.506 101.406 131.338 100.559 131.338 99.5364C131.338 98.4994 130.506 97.6669 129.471 97.6669ZM122.748 97.6669C121.713 97.6669 120.881 98.4994 120.881 99.5364C120.881 100.559 121.727 101.406 122.748 101.406C123.783 101.391 124.615 100.559 124.615 99.5364C124.615 98.4994 123.783 97.6669 122.748 97.6669Z" fill="#4D12EE"/>
<path d="M103.627 77.4833C103.52 78.0251 102.994 78.3776 102.452 78.2706L93.6223 76.5271C93.0805 76.4201 92.728 75.8941 92.8349 75.3523C92.9419 74.8105 93.4679 74.458 94.0097 74.5649L101.858 76.1147L103.408 68.2663C103.515 67.7245 104.041 67.372 104.583 67.479C105.125 67.586 105.477 68.1119 105.37 68.6537L103.627 77.4833ZM20.1455 5.4224L20.3883 4.45232L20.1455 5.4224ZM-114.231 181.759L-113.816 180.849L-114.231 181.759ZM-49.1683 5.4224L-49.45 6.3819L-49.1683 5.4224ZM-129.285 238.203L-129.055 237.23L-129.285 238.203ZM-8.29167 170.89C-7.79496 170.649 -7.19656 170.856 -6.95512 171.352L-3.02052 179.447C-2.77907 179.943 -2.986 180.542 -3.48271 180.783C-3.97942 181.025 -4.57782 180.818 -4.81927 180.321L-8.31669 173.126L-15.5117 176.624C-16.0084 176.865 -16.6068 176.658 -16.8482 176.161C-17.0897 175.665 -16.8828 175.066 -16.386 174.825L-8.29167 170.89ZM101.815 77.8463C95.1228 67.8611 83.2704 52.1357 68.7504 37.827C54.2087 23.4968 37.1002 10.6968 19.9027 6.39248L20.3883 4.45232C38.1136 8.88874 55.5361 21.997 70.1543 36.4025C84.7941 50.8294 96.7303 66.6672 103.476 76.7328L101.815 77.8463ZM19.9027 6.39248C-46.724 -10.2834 -95.7675 26.2064 -120.339 70.5991C-132.629 92.8017 -138.749 116.911 -137.885 137.213C-137.021 157.529 -129.193 173.825 -113.816 180.849L-114.647 182.668C-130.977 175.208 -139.002 158.015 -139.883 137.298C-140.765 116.566 -134.524 92.095 -122.089 69.6305C-97.2136 24.6891 -47.3619 -12.5047 20.3883 4.45232L19.9027 6.39248ZM-113.816 180.849C-92.495 190.589 -72.2376 186.309 -55.1572 173.908C-38.0396 161.48 -24.1424 140.903 -15.7654 118.193C-7.38859 95.4841 -4.57833 70.7687 -9.49384 50.1188C-14.3991 29.5121 -26.9784 12.9799 -49.45 6.3819L-48.8866 4.46291C-25.6051 11.2987 -12.5881 28.4832 -7.5482 49.6557C-2.51859 70.7849 -5.41438 95.9111 -13.889 118.885C-22.3636 141.86 -36.4632 162.807 -53.9822 175.526C-71.5385 188.272 -92.5574 192.76 -114.647 182.668L-113.816 180.849ZM-49.45 6.3819C-83.2958 -3.55568 -112.313 4.18334 -135.061 21.799C-157.842 39.4406 -174.368 67.0215 -183.05 96.7632C-191.732 126.506 -192.538 158.298 -184.005 184.311C-175.483 210.291 -157.67 230.472 -129.055 237.23L-129.515 239.176C-158.935 232.228 -177.211 211.441 -185.905 184.934C-194.59 158.46 -193.74 126.245 -184.97 96.2028C-176.2 66.1593 -159.477 38.1767 -136.286 20.2177C-113.061 2.23269 -83.3839 -5.666 -48.8866 4.46291L-49.45 6.3819ZM-129.055 237.23C-83.9396 247.885 -53.9261 231.445 -35.1467 212.357C-25.7407 202.797 -19.1482 192.563 -14.9068 184.715C-12.787 180.792 -11.2569 177.47 -10.2582 175.132C-9.75887 173.963 -9.39253 173.041 -9.15185 172.414C-9.0315 172.1 -8.94259 171.86 -8.88418 171.699C-8.85497 171.619 -8.8334 171.559 -8.81934 171.519C-8.81231 171.499 -8.80715 171.484 -8.80386 171.475C-8.80222 171.47 -8.80104 171.467 -8.80033 171.465C-8.79997 171.464 -8.79978 171.463 -8.79961 171.463C-8.79953 171.463 -8.79958 171.463 -7.85449 171.79C-6.90941 172.116 -6.90968 172.117 -6.91007 172.118C-6.91036 172.119 -6.91087 172.121 -6.91145 172.122C-6.91259 172.126 -6.9142 172.13 -6.91628 172.136C-6.92044 172.148 -6.92648 172.165 -6.93441 172.188C-6.95026 172.232 -6.97369 172.298 -7.00478 172.383C-7.06697 172.554 -7.15988 172.805 -7.28443 173.13C-7.53352 173.779 -7.90923 174.725 -8.419 175.918C-9.43842 178.304 -10.9946 181.682 -13.1473 185.665C-17.4508 193.629 -24.1479 204.029 -33.721 213.76C-52.8995 233.253 -83.6013 250.02 -129.515 239.176L-129.055 237.23Z" fill="url(#paint0_linear_3305_141)" fill-opacity="0.2"/>
<defs>
<filter id="filter0_f_3305_141" x="40" y="26" width="155" height="155" filterUnits="userSpaceOnUse" color-interpolation-filters="sRGB">
<feFlood flood-opacity="0" result="BackgroundImageFix"/>
<feBlend mode="normal" in="SourceGraphic" in2="BackgroundImageFix" result="shape"/>
<feGaussianBlur stdDeviation="30" result="effect1_foregroundBlur_3305_141"/>
</filter>
<linearGradient id="paint0_linear_3305_141" x1="81.6455" y1="29.5" x2="-101.854" y2="41.5" gradientUnits="userSpaceOnUse">
<stop stop-color="#2C2C2C"/>
<stop offset="1" stop-color="#2C2C2C" stop-opacity="0"/>
</linearGradient>
</defs>
</svg>
