<svg width="24" height="24" viewBox="0 0 24 24" fill="none" xmlns="http://www.w3.org/2000/svg">
<g id="Frame" clip-path="url(#clip0_1633_621)">
<path id="Vector" d="M12.0675 10.539C9.89666 9.97474 9.19855 9.39139 9.19855 8.48289C9.19855 7.4405 10.1644 6.7137 11.7806 6.7137C13.4828 6.7137 14.114 7.52657 14.1714 8.72197H16.2849C16.2179 7.0771 15.2138 5.56612 13.2151 5.0784V2.98407H10.3461V5.04971C8.49088 5.45137 6.99903 6.65632 6.99903 8.50201C6.99903 10.7111 8.82559 11.8109 11.4937 12.4516C13.8845 13.0254 14.3627 13.8669 14.3627 14.7563C14.3627 15.4162 13.8941 16.4681 11.7806 16.4681C9.8106 16.4681 9.03598 15.5883 8.93078 14.4599H6.82689C6.94165 16.5542 8.51001 17.7305 10.3461 18.1226V20.1978H13.2151V18.1417C15.0799 17.7878 16.5622 16.7072 16.5622 14.7468C16.5622 12.0308 14.2383 11.1032 12.0675 10.539Z" fill="#F0513F"/>
</g>
<defs>
<clipPath id="clip0_1633_621">
<rect width="22.9516" height="22.9516" fill="white" transform="translate(0.782974 0.115173)"/>
</clipPath>
</defs>
</svg>
