<svg width="20" height="20" viewBox="0 0 20 20" fill="none" xmlns="http://www.w3.org/2000/svg">
<g id="Call">
<g id="Iconly/Light-Outline/Call">
<g id="Call_2">
<path id="Fill-1" fill-rule="evenodd" clip-rule="evenodd" d="M3.63292 4.2171C3.63458 4.2171 3.59292 4.26043 3.54042 4.3121C3.33875 4.50793 2.92125 4.91543 2.91704 5.76793C2.91042 6.96043 3.69458 9.1746 7.47042 12.9496C11.2288 16.7063 13.4396 17.4996 14.6346 17.4996H14.6521C15.5046 17.4954 15.9113 17.0771 16.1079 16.8763C16.1679 16.8146 16.2163 16.7696 16.2504 16.7413C17.0804 15.9063 17.5054 15.2846 17.5013 14.8863C17.4954 14.4796 16.9896 13.9988 16.2904 13.3338C16.0679 13.1221 15.8263 12.8921 15.5713 12.6371C14.9104 11.9779 14.5829 12.0904 13.8629 12.3438C12.8671 12.6929 11.5004 13.1679 9.37708 11.0438C7.25042 8.91877 7.72625 7.55377 8.07458 6.55793C8.32625 5.83793 8.44125 5.5096 7.77958 4.84793C7.52042 4.5896 7.28792 4.3446 7.07375 4.1196C6.41292 3.4246 5.93625 2.9221 5.53208 2.91627H5.52542C5.12625 2.91627 4.50625 3.34293 3.62875 4.22043C3.63125 4.21793 3.63292 4.2171 3.63292 4.2171ZM14.6354 18.7496C12.5588 18.7496 9.85125 17.0963 6.58708 13.8338C3.31042 10.5579 1.65458 7.8421 1.66701 5.76127C1.67458 4.38627 2.39542 3.6821 2.66625 3.41793C2.68042 3.40043 2.72875 3.35293 2.74542 3.33627C3.94042 2.14043 4.74625 1.6571 5.54792 1.66614C6.47875 1.67877 7.14125 2.37543 7.97958 3.25793C8.18708 3.47627 8.41209 3.71377 8.66292 3.96377C9.87959 5.18043 9.53292 6.17293 9.25459 6.9696C8.95125 7.83877 8.68875 8.58877 10.2604 10.1604C11.8338 11.7321 12.5838 11.4696 13.4496 11.1638C14.2471 10.8854 15.2371 10.5371 16.4554 11.7538C16.7021 12.0004 16.9363 12.2229 17.1521 12.4288C18.0388 13.2713 18.7388 13.9371 18.7506 14.8704C18.7604 15.6663 18.2771 16.4771 17.0838 17.6713L16.5554 17.3129L17.0021 17.7496C16.7379 18.0204 16.0346 18.7421 14.6588 18.7496H14.6354Z" fill="white"/>
</g>
</g>
</g>
</svg>
