<svg width="23" height="23" viewBox="0 0 23 23" fill="none" xmlns="http://www.w3.org/2000/svg">
<g id="Frame">
<path id="Vector" d="M20.249 3.84863H2.93285C2.56447 3.84863 2.26685 4.14625 2.26685 4.51464V14.8377C2.26685 15.2061 2.56447 15.5037 2.93285 15.5037H10.8417V17.8348H7.26189C7.07874 17.8348 6.92889 17.9846 6.92889 18.1678V19.1668C6.92889 19.2583 7.00381 19.3333 7.09539 19.3333H16.0865C16.178 19.3333 16.253 19.2583 16.253 19.1668V18.1678C16.253 17.9846 16.1031 17.8348 15.92 17.8348H12.3402V15.5037H20.249C20.6174 15.5037 20.915 15.2061 20.915 14.8377V4.51464C20.915 4.14625 20.6174 3.84863 20.249 3.84863ZM19.4165 14.0052H3.76536V5.34715H19.4165V14.0052Z" fill="#F0513F"/>
</g>
</svg>
