<svg width="60" height="60" viewBox="0 0 60 60" fill="none" xmlns="http://www.w3.org/2000/svg">
<g id="Frame">
<path id="Vector" d="M55.5683 14.0625H42.1875V4.6875H38.4375V14.0625H23.4375V17.8125H25.5375L26.2587 23.4375H13.125C10.6395 23.4403 8.25653 24.4289 6.49899 26.1865C4.74145 27.944 3.75282 30.327 3.75 32.8125V34.6875H36.5625V32.8125C36.5641 31.3978 36.2435 30.0013 35.625 28.729C35.0743 27.5952 34.3014 26.5838 33.3521 25.7547C32.4028 24.9256 31.2965 24.2957 30.099 23.9026L29.3183 17.8125H51.3067L47.0996 50.625H3.75V54.375H50.4L55.0875 17.8125H58.125V14.0625H55.5683ZM32.4912 30.9375H7.82133C8.21031 29.8415 8.92888 28.8928 9.87844 28.2214C10.828 27.55 11.9621 27.1888 13.125 27.1875H27.1875C28.3504 27.1888 29.4845 27.55 30.4341 28.2214C31.3836 28.8928 32.1022 29.8415 32.4912 30.9375Z" fill="#DC810B"/>
<path id="Vector_2" d="M35.625 41.25H36.5625V37.5H35.625H21.5625H3.75V41.25H21.5625H35.625Z" fill="#DC810B"/>
<path id="Vector_3" d="M35.625 47.8125H36.5625V44.0625H35.625H21.5625H3.75V47.8125H21.5625H35.625Z" fill="#DC810B"/>
</g>
</svg>
