<svg width="107" height="550" viewBox="0 0 107 550" fill="none" xmlns="http://www.w3.org/2000/svg">
<g opacity="0.2">
<mask id="path-1-inside-1_2340_1686" fill="white">
<path d="M107 0C107 145.869 49.0537 285.764 -54.0912 388.909C-157.236 492.054 -297.131 550 -443 550C-588.869 550 -728.764 492.054 -831.909 388.909C-935.054 285.764 -993 145.869 -993 6.10352e-05L-443 0H107Z"/>
</mask>
<path d="M107 0C107 145.869 49.0537 285.764 -54.0912 388.909C-157.236 492.054 -297.131 550 -443 550C-588.869 550 -728.764 492.054 -831.909 388.909C-935.054 285.764 -993 145.869 -993 6.10352e-05L-443 0H107Z" stroke="#DC810B" stroke-opacity="0.2" stroke-width="100" mask="url(#path-1-inside-1_2340_1686)"/>
</g>
</svg>
