<svg width="28" height="28" viewBox="0 0 28 28" fill="none" xmlns="http://www.w3.org/2000/svg">
<g id="Frame" opacity="0.6">
<path id="Vector" d="M14.3418 6.17517C14.5606 5.95645 14.8573 5.83358 15.1667 5.83358C15.476 5.83358 15.7727 5.95645 15.9915 6.17517L22.9915 13.1752C23.2102 13.394 23.3331 13.6906 23.3331 14C23.3331 14.3094 23.2102 14.6061 22.9915 14.8248L15.9915 21.8248C15.7715 22.0374 15.4768 22.1549 15.1709 22.1523C14.865 22.1496 14.5723 22.0269 14.356 21.8106C14.1397 21.5943 14.017 21.3017 14.0144 20.9958C14.0117 20.6899 14.1293 20.3952 14.3418 20.1752L19.3503 15.1667H5.83332C5.5239 15.1667 5.22716 15.0438 5.00837 14.825C4.78957 14.6062 4.66666 14.3094 4.66666 14C4.66666 13.6906 4.78957 13.3938 5.00837 13.175C5.22716 12.9563 5.5239 12.8333 5.83332 12.8333H19.3503L14.3418 7.82483C14.1231 7.60605 14.0002 7.30936 14.0002 7C14.0002 6.69064 14.1231 6.39395 14.3418 6.17517Z" fill="white"/>
</g>
</svg>
