<svg width="115" height="115" viewBox="0 0 115 115" fill="none" xmlns="http://www.w3.org/2000/svg">
<g id="Grid dots" opacity="0.2">
<circle id="Ellipse 1" cx="7.5" cy="7.5" r="7.5" fill="#F1C6C3"/>
<circle id="Ellipse 2" cx="7.5" cy="7.5" r="7.5" fill="#F1C6C3"/>
<circle id="Ellipse 7" cx="7.5" cy="7.5" r="7.5" fill="#F1C6C3"/>
<circle id="Ellipse 12" cx="7.5" cy="32.5" r="7.5" fill="#F1C6C3"/>
<circle id="Ellipse 17" cx="7.5" cy="57.5" r="7.5" fill="#F1C6C3"/>
<circle id="Ellipse 22" cx="7.5" cy="82.5" r="7.5" fill="#F1C6C3"/>
<circle id="Ellipse 27" cx="7.5" cy="107.5" r="7.5" fill="#F1C6C3"/>
<circle id="Ellipse 8" cx="32.5" cy="7.5" r="7.5" fill="#F1C6C3"/>
<circle id="Ellipse 3" cx="32.5" cy="7.5" r="7.5" fill="#F1C6C3"/>
<circle id="Ellipse 9" cx="57.5" cy="7.5" r="7.5" fill="#F1C6C3"/>
<circle id="Ellipse 13" cx="32.5" cy="32.5" r="7.5" fill="#F1C6C3"/>
<circle id="Ellipse 18" cx="32.5" cy="57.5" r="7.5" fill="#F1C6C3"/>
<circle id="Ellipse 23" cx="32.5" cy="82.5" r="7.5" fill="#F1C6C3"/>
<circle id="Ellipse 28" cx="32.5" cy="107.5" r="7.5" fill="#F1C6C3"/>
<circle id="Ellipse 10" cx="82.5" cy="7.5" r="7.5" fill="#F1C6C3"/>
<circle id="Ellipse 4" cx="57.5" cy="7.5" r="7.5" fill="#F1C6C3"/>
<circle id="Ellipse 11" cx="107.5" cy="7.5" r="7.5" fill="#F1C6C3"/>
<circle id="Ellipse 14" cx="57.5" cy="32.5" r="7.5" fill="#F1C6C3"/>
<circle id="Ellipse 19" cx="57.5" cy="57.5" r="7.5" fill="#F1C6C3"/>
<circle id="Ellipse 24" cx="57.5" cy="82.5" r="7.5" fill="#F1C6C3"/>
<circle id="Ellipse 29" cx="57.5" cy="107.5" r="7.5" fill="#F1C6C3"/>
<circle id="Ellipse 5" cx="82.5" cy="7.5" r="7.5" fill="#F1C6C3"/>
<circle id="Ellipse 15" cx="82.5" cy="32.5" r="7.5" fill="#F1C6C3"/>
<circle id="Ellipse 20" cx="82.5" cy="57.5" r="7.5" fill="#F1C6C3"/>
<circle id="Ellipse 25" cx="82.5" cy="82.5" r="7.5" fill="#F1C6C3"/>
<circle id="Ellipse 30" cx="82.5" cy="107.5" r="7.5" fill="#F1C6C3"/>
<circle id="Ellipse 6" cx="107.5" cy="7.5" r="7.5" fill="#F1C6C3"/>
<circle id="Ellipse 16" cx="107.5" cy="32.5" r="7.5" fill="#F1C6C3"/>
<circle id="Ellipse 21" cx="107.5" cy="57.5" r="7.5" fill="#F1C6C3"/>
<circle id="Ellipse 26" cx="107.5" cy="82.5" r="7.5" fill="#F1C6C3"/>
<circle id="Ellipse 31" cx="107.5" cy="107.5" r="7.5" fill="#F1C6C3"/>
</g>
</svg>
