<svg width="24" height="21" viewBox="0 0 24 21" fill="none" xmlns="http://www.w3.org/2000/svg">
<g id="Frame">
<path id="Vector" d="M13.7754 16.1017C13.1725 16.2003 12.5504 16.2518 11.9144 16.2518C7.46888 16.2518 3.70579 13.7345 2.44067 10.2643C2.78508 9.31953 3.31462 8.44545 3.99263 7.67355M9.80785 8.44978C10.3469 7.98542 11.0915 7.6982 11.9139 7.6982C13.559 7.6982 14.8924 8.84703 14.8924 10.2643C14.8924 10.9728 14.559 11.6144 14.02 12.0787M9.80785 8.44978L14.02 12.0787M9.80785 8.44978L6.54194 5.63607M14.02 12.0787L17.2863 14.8928M2.97854 2.56606L6.54194 5.63607M6.54194 5.63607C8.09056 4.7759 9.93485 4.27677 11.9143 4.27677C16.3599 4.27677 20.123 6.79401 21.3881 10.2643C20.6862 12.1894 19.2157 13.8213 17.2863 14.8928M17.2863 14.8928L20.8493 17.9625" stroke="#4B5563" stroke-width="1.52661" stroke-linecap="round" stroke-linejoin="round"/>
</g>
</svg>
