<svg width="31" height="31" viewBox="0 0 31 31" fill="none" xmlns="http://www.w3.org/2000/svg">
<g id="Frame">
<path id="Vector" d="M20.8627 7.9255C20.8627 7.59962 20.9922 7.28709 21.2226 7.05666C21.4531 6.82623 21.7656 6.69678 22.0915 6.69678C22.8742 6.69678 23.6421 6.85405 24.3904 7.15386C25.2051 7.47947 25.8317 7.96236 26.4006 8.53003C26.9695 9.10016 27.4524 9.72681 27.778 10.5415C28.0778 11.2897 28.2351 12.0577 28.2351 12.8404C28.2351 13.6231 28.0778 14.391 27.778 15.1393C27.4573 15.9442 26.9818 16.5647 26.4215 17.1286L25.2124 18.4593C25.1993 18.4736 25.1857 18.4875 25.1719 18.5011L21.24 22.433C20.6711 23.0019 20.0444 23.4848 19.2298 23.8117C18.4997 24.1094 17.7193 24.2641 16.9308 24.2675C16.1423 24.2637 15.3619 24.1086 14.6319 23.8104C13.8172 23.4848 13.1906 23.0019 12.6217 22.4343C12.0528 21.8641 11.5699 21.2375 11.2443 20.4228C10.9345 19.6534 10.7792 18.8305 10.7872 18.001C10.7872 17.2183 10.9445 16.4504 11.2443 15.7021C11.5699 14.8874 12.0528 14.2608 12.6205 13.6919L13.9721 12.3403C14.0861 12.2261 14.2216 12.1356 14.3707 12.0738C14.5198 12.0119 14.6796 11.9801 14.841 11.98C15.0023 11.98 15.1622 12.0117 15.3113 12.0734C15.4604 12.1351 15.5959 12.2256 15.7101 12.3397C15.8243 12.4538 15.9148 12.5892 15.9766 12.7383C16.0385 12.8874 16.0703 13.0472 16.0704 13.2086C16.0704 13.37 16.0387 13.5298 15.977 13.6789C15.9153 13.828 15.8248 13.9636 15.7107 14.0777L14.3591 15.4293C13.945 15.8434 13.6907 16.1997 13.526 16.6138C13.3439 17.0538 13.2484 17.5248 13.2447 18.001C13.2447 18.5859 13.3393 19.0454 13.526 19.5111C13.6907 19.9252 13.945 20.2815 14.3591 20.6956C14.7732 21.1097 15.1295 21.364 15.5436 21.5287C16.024 21.7216 16.4848 21.8101 16.9308 21.8101C17.3769 21.8101 17.8376 21.7216 18.3181 21.5287C18.7321 21.364 19.0885 21.1097 19.5025 20.6956L23.4136 16.7846L24.6226 15.4539C24.6358 15.4396 24.6493 15.4257 24.6632 15.4121C25.0773 14.998 25.3316 14.6417 25.4963 14.2276C25.6892 13.7472 25.7776 13.2864 25.7776 12.8404C25.7776 12.3944 25.6892 11.9336 25.4963 11.4532C25.3316 11.0391 25.0773 10.6828 24.6632 10.2687C24.2491 9.8546 23.8928 9.60025 23.4787 9.43437C23.0386 9.25268 22.5676 9.15756 22.0915 9.15422C21.7656 9.15422 21.4531 9.02477 21.2226 8.79434C20.9922 8.56391 20.8627 8.25138 20.8627 7.9255ZM14.842 9.76859C14.396 9.76859 13.9352 9.85705 13.4548 10.0487C13.0407 10.2146 12.6844 10.469 12.2703 10.8843L8.23638 14.9169L7.02732 16.2476L6.98677 16.2894C6.57269 16.7035 6.31835 17.0598 6.15247 17.4739C5.97078 17.914 5.87566 18.385 5.87232 18.8611C5.87232 19.3072 5.96079 19.7679 6.15247 20.2484C6.31835 20.6624 6.57269 21.0188 6.988 21.4329C7.40085 21.8469 7.75718 22.1013 8.17126 22.2672C8.65169 22.4588 9.11246 22.5473 9.55849 22.5473C9.88437 22.5473 10.1969 22.6768 10.4273 22.9072C10.6578 23.1376 10.7872 23.4502 10.7872 23.776C10.7872 24.1019 10.6578 24.4144 10.4273 24.6449C10.1969 24.8753 9.88437 25.0048 9.55849 25.0048C8.77006 25.0014 7.98961 24.8466 7.25955 24.5489C6.4449 24.2221 5.81825 23.7392 5.24936 23.1703C4.68046 22.6014 4.19757 21.9747 3.87196 21.1601C3.57382 20.4301 3.41865 19.6496 3.41487 18.8611C3.41487 18.0784 3.57215 17.3105 3.87196 16.5622C4.19265 15.7574 4.66817 15.1369 5.22847 14.5729L6.43753 13.2422L6.47808 13.2004L10.5329 9.14562C11.1018 8.57672 11.7284 8.09384 12.5431 7.76822C13.273 7.47009 14.0535 7.31492 14.842 7.31114C15.6247 7.31114 16.3926 7.46842 17.1409 7.76822C17.9556 8.09384 18.5822 8.57672 19.1511 9.14439C19.72 9.71452 20.2029 10.3412 20.5285 11.1558C20.8283 11.9041 20.9856 12.6721 20.9856 13.4548C20.9856 14.2375 20.8283 15.0054 20.5285 15.7537C20.2066 16.5585 19.7311 17.1815 19.1708 17.7442L17.8364 19.2003C17.6161 19.4404 17.3094 19.5833 16.9838 19.5973C16.6582 19.6114 16.3404 19.4955 16.1002 19.2752C15.86 19.0549 15.7172 18.7482 15.7032 18.4226C15.6891 18.0971 15.805 17.7792 16.0253 17.539L17.3769 16.0646L17.4137 16.0265C17.8278 15.6124 18.0821 15.2561 18.2468 14.842C18.4397 14.3616 18.5282 13.9008 18.5282 13.4548C18.5282 13.0087 18.4397 12.548 18.2468 12.0675C18.0821 11.6534 17.8278 11.2971 17.4137 10.883C16.9996 10.469 16.6433 10.2146 16.2292 10.0487C15.7891 9.86704 15.3181 9.77192 14.842 9.76859Z" fill="#EF4439"/>
</g>
</svg>
