<svg width="20" height="20" viewBox="0 0 20 20" fill="none" xmlns="http://www.w3.org/2000/svg">
<path fill-rule="evenodd" clip-rule="evenodd" d="M13.8824 1.6665C16.6574 1.6665 18.7499 3.93067 18.7499 6.93317V12.6565C18.7499 14.1932 18.2066 15.5815 17.2191 16.5665C16.3333 17.449 15.1841 17.9165 13.8958 17.9165H5.68492C4.39908 17.9165 3.25075 17.4498 2.36408 16.5665C1.37658 15.5815 0.83325 14.1932 0.83325 12.6565V6.93317C0.83325 3.93067 2.92575 1.6665 5.70075 1.6665H13.8824ZM13.8824 2.9165H5.70075C3.60492 2.9165 2.08325 4.60567 2.08325 6.93317V12.6565C2.08325 13.859 2.49658 14.9332 3.24658 15.6807C3.89325 16.3265 4.73742 16.6665 5.68742 16.6665H13.8824C13.8841 16.6648 13.8907 16.6665 13.8958 16.6665C14.8466 16.6665 15.6899 16.3265 16.3366 15.6807C17.0874 14.9332 17.4999 13.859 17.4999 12.6565V6.93317C17.4999 4.60567 15.9783 2.9165 13.8824 2.9165ZM15.1957 6.77384C15.4132 7.04134 15.3724 7.43467 15.1049 7.653L11.4016 10.663C10.9333 11.0347 10.3733 11.2205 9.81408 11.2205C9.25658 11.2205 8.70075 11.0363 8.23575 10.668L4.49825 7.65467C4.22908 7.438 4.18742 7.04384 4.40325 6.7755C4.62075 6.508 5.01408 6.4655 5.28242 6.68134L9.01658 9.69134C9.48575 10.063 10.1466 10.063 10.6191 9.688L14.3157 6.683C14.5841 6.46384 14.9774 6.5055 15.1957 6.77384Z" fill="white"/>
</svg>
