<svg width="13" height="13" viewBox="0 0 13 13" fill="none" xmlns="http://www.w3.org/2000/svg">
<g clip-path="url(#clip0_1759_2066)">
<path d="M1.23737 7.50149H4.53695C4.99252 7.50149 5.36185 7.87082 5.36185 8.32639V10.8011C5.36185 11.2567 4.99252 11.626 4.53695 11.626H2.06226C1.60669 11.626 1.23737 11.2567 1.23737 10.8011V7.50149ZM1.23737 7.50149V4.61436C1.23737 3.01983 2.52998 1.72722 4.1245 1.72722M7.01164 7.50149H10.3112C10.7668 7.50149 11.1361 7.87082 11.1361 8.32639V10.8011C11.1361 11.2567 10.7668 11.626 10.3112 11.626H7.83654C7.38096 11.626 7.01164 11.2567 7.01164 10.8011V7.50149ZM7.01164 7.50149V4.61436C7.01164 3.01983 8.30425 1.72722 9.89878 1.72722" stroke="black" stroke-width="0.883817"/>
</g>
<defs>
<clipPath id="clip0_1759_2066">
<rect width="12.3734" height="12.3734" fill="white" transform="matrix(1 0 0 -1 0 12.8633)"/>
</clipPath>
</defs>
</svg>
