<svg width="13" height="14" viewBox="0 0 13 14" fill="none" xmlns="http://www.w3.org/2000/svg">
<g id="Frame">
<path id="Vector" d="M11.7627 6.08835H8.46308C8.00751 6.08835 7.63818 5.71903 7.63818 5.26345V2.78876C7.63818 2.33319 8.00751 1.96387 8.46308 1.96387H10.9378C11.3933 1.96387 11.7627 2.33319 11.7627 2.78876V6.08835ZM11.7627 6.08835V8.97549C11.7627 10.57 10.4701 11.8626 8.87553 11.8626M5.98839 6.08835H2.68881C2.23321 6.08835 1.86391 5.71903 1.86391 5.26345V2.78876C1.86391 2.33319 2.23321 1.96387 2.68881 1.96387H5.16349C5.61907 1.96387 5.98839 2.33319 5.98839 2.78876V6.08835ZM5.98839 6.08835V8.97549C5.98839 10.57 4.69578 11.8626 3.10125 11.8626" stroke="black" stroke-width="0.883817"/>
</g>
</svg>
