<svg width="54" height="54" viewBox="0 0 54 54" fill="none" xmlns="http://www.w3.org/2000/svg">
<g id="Frame" clip-path="url(#clip0_1764_2271)">
<path id="Vector" d="M45.9034 7.85042C43.4277 5.35182 40.4795 3.37093 37.2306 2.02316C33.9817 0.675389 30.4971 -0.0122994 26.9797 0.000166491C12.2411 0.000166491 0.2295 12.0084 0.216 26.7504C0.216 31.472 1.45125 36.0654 3.78338 40.1323L0 54.0002L14.1885 50.2809C18.1136 52.417 22.511 53.5367 26.9797 53.5378H26.9933C41.7353 53.5378 53.7435 41.5295 53.757 26.774C53.7604 23.2574 53.0679 19.7749 51.7194 16.5271C50.3709 13.2793 48.3965 10.3305 45.9034 7.85042ZM26.9797 49.0085C22.9939 49.0099 19.0812 47.9373 15.6533 45.9035L14.8432 45.4175L6.426 47.6248L8.67375 39.4134L8.14725 38.5663C5.9191 35.0236 4.74068 30.922 4.74862 26.7369C4.74862 14.4992 14.7285 4.51592 26.9933 4.51592C29.9151 4.51068 32.8091 5.08384 35.5084 6.20238C38.2078 7.32091 40.659 8.96268 42.7207 11.033C44.7897 13.0953 46.4299 15.5469 47.5467 18.2462C48.6636 20.9455 49.2349 23.8393 49.2278 26.7605C49.2143 39.0422 39.2344 49.0085 26.9797 49.0085ZM39.1804 32.3563C38.5155 32.0222 35.2316 30.4055 34.614 30.176C33.9997 29.9567 33.5509 29.8419 33.1121 30.5102C32.6632 31.175 31.3808 32.6904 30.996 33.1258C30.6113 33.5747 30.213 33.6253 29.5447 33.2945C28.8799 32.957 26.7233 32.255 24.1718 29.9702C22.1805 28.1983 20.8474 26.0045 20.4491 25.3397C20.0644 24.6714 20.412 24.3137 20.7461 23.9795C21.0397 23.6825 21.411 23.1965 21.7451 22.8118C22.0826 22.427 22.194 22.1435 22.4134 21.698C22.6327 21.2458 22.5281 20.861 22.3627 20.5269C22.194 20.1928 20.8609 16.8954 20.2972 15.5657C19.7572 14.2528 19.2071 14.435 18.7954 14.4182C18.4106 14.3945 17.9618 14.3945 17.5129 14.3945C17.1739 14.403 16.8403 14.4814 16.5331 14.6248C16.2259 14.7683 15.9516 14.9737 15.7275 15.2282C15.1132 15.8964 13.3954 17.513 13.3954 20.8104C13.3954 24.1078 15.7916 27.2769 16.1291 27.7258C16.4599 28.1747 20.8339 34.9213 27.5467 37.8238C29.133 38.5157 30.3818 38.924 31.3571 39.2345C32.9603 39.7475 34.4081 39.6699 35.5624 39.5045C36.8449 39.3088 39.5145 37.8845 40.0781 36.3219C40.6316 34.7559 40.6316 33.4194 40.4629 33.1393C40.2975 32.8558 39.8486 32.6904 39.1804 32.3563Z" fill="#6DAD05"/>
</g>
<defs>
<clipPath id="clip0_1764_2271">
<rect width="54" height="54" fill="white"/>
</clipPath>
</defs>
</svg>
