<svg width="84" height="84" viewBox="0 0 84 84" fill="none" xmlns="http://www.w3.org/2000/svg">
<g id="Scan" opacity="0.2">
<g id="Iconly/Light-Outline/Scan">
<g id="Scan_2">
<path id="Combined-Shape" fill-rule="evenodd" clip-rule="evenodd" d="M15.2946 60.4751C15.2946 66.2291 19.9777 70.9121 25.7352 70.9121H30.0612C31.5102 70.9121 32.6861 72.0881 32.6861 73.5371C32.6861 74.9861 31.5102 76.1621 30.0612 76.1621H25.7352C17.0832 76.1621 10.0446 69.1236 10.0446 60.4751L10.0415 48.839L6.125 48.8421C4.676 48.8421 3.5 47.6661 3.5 46.2171C3.5 44.7681 4.676 43.5921 6.125 43.5921L12.6195 43.5881C12.6362 43.5878 12.6529 43.5876 12.6696 43.5876L12.719 43.589L73.0269 43.5881C73.0445 43.5878 73.0622 43.5876 73.08 43.5876L73.129 43.589L79.625 43.5921C81.074 43.5921 82.25 44.7681 82.25 46.2171C82.25 47.6661 81.074 48.8421 79.625 48.8421L75.705 48.839V60.4751C75.705 69.1236 68.6665 76.1621 60.0145 76.1621H55.797C54.348 76.1621 53.172 74.9861 53.172 73.5371C53.172 72.0881 54.348 70.9121 55.797 70.9121H60.0145C65.772 70.9121 70.455 66.2291 70.455 60.4751V48.839H15.2915L15.2946 60.4751ZM60.0142 10.5C68.6662 10.5 75.7046 17.5385 75.7046 26.1835V31.4825C75.7046 32.9315 74.5286 34.1075 73.0796 34.1075C71.6306 34.1075 70.4546 32.9315 70.4546 31.4825V26.1835C70.4546 20.433 65.7717 15.75 60.0142 15.75H55.7967C54.3477 15.75 53.1717 14.574 53.1717 13.125C53.1717 11.676 54.3477 10.5 55.7967 10.5H60.0142ZM30.0618 10.5C31.5108 10.5 32.6868 11.676 32.6868 13.125C32.6868 14.574 31.5108 15.75 30.0618 15.75H25.7358C19.9783 15.75 15.2954 20.433 15.2954 26.1835V31.4825C15.2954 32.9315 14.1194 34.1075 12.6704 34.1075C11.2214 34.1075 10.0454 32.9315 10.0454 31.4825V26.1835C10.0454 17.5385 17.0838 10.5 25.7358 10.5H30.0618Z" fill="#525252"/>
</g>
</g>
</g>
</svg>
