<svg width="11" height="12" viewBox="0 0 11 12" fill="none" xmlns="http://www.w3.org/2000/svg">
<g id="Star" clip-path="url(#clip0_1759_2044)">
<g id="Iconly/Bold/Star">
<g id="Star_2">
<path id="Vector" d="M8.4119 6.97135C8.30351 7.07639 8.25371 7.22829 8.2784 7.37727L8.65043 9.4362C8.68182 9.61071 8.60817 9.78731 8.46212 9.88816C8.319 9.99278 8.12859 10.0053 7.97249 9.92164L6.11904 8.95495C6.0546 8.92063 5.98304 8.90222 5.9098 8.90013H5.79639C5.75706 8.90599 5.71856 8.91854 5.6834 8.93779L3.82953 9.90908C3.73789 9.95512 3.6341 9.97144 3.53241 9.95512C3.28467 9.90825 3.11937 9.67222 3.15996 9.42323L3.53241 7.3643C3.5571 7.21407 3.5073 7.06132 3.39892 6.95461L1.88778 5.48992C1.7614 5.36731 1.71746 5.18318 1.77521 5.01704C1.83129 4.85132 1.97441 4.73038 2.14724 4.70318L4.22709 4.40146C4.38527 4.38513 4.52421 4.28888 4.59535 4.1466L5.51183 2.26762C5.53359 2.22577 5.56163 2.18727 5.59552 2.15463L5.63318 2.12534C5.65285 2.10358 5.67545 2.08558 5.70056 2.07094L5.74618 2.0542L5.81732 2.0249H5.9935C6.15085 2.04122 6.28936 2.13538 6.36176 2.27599L7.29037 4.1466C7.35733 4.28344 7.48747 4.37844 7.63771 4.40146L9.71756 4.70318C9.89332 4.72829 10.0402 4.84965 10.0984 5.01704C10.1532 5.18485 10.1059 5.36898 9.97702 5.48992L8.4119 6.97135Z" fill="#FF9800"/>
</g>
</g>
</g>
<defs>
<clipPath id="clip0_1759_2044">
<rect width="10.0435" height="10.0435" fill="white" transform="translate(0.91333 0.978516)"/>
</clipPath>
</defs>
</svg>
