<svg width="24" height="24" viewBox="0 0 24 24" fill="none" xmlns="http://www.w3.org/2000/svg">
<g id="Frame">
<path id="Vector" d="M8.87565 10.6346C10.9883 10.6346 12.7009 8.92197 12.7009 6.80933C12.7009 4.6967 10.9883 2.98407 8.87565 2.98407C6.76301 2.98407 5.05038 4.6967 5.05038 6.80933C5.05038 8.92197 6.76301 10.6346 8.87565 10.6346Z" stroke="#F0513F" stroke-width="1.6394" stroke-linecap="round" stroke-linejoin="round"/>
<path id="Vector_2" d="M3.13773 20.1978V18.2852C3.13773 17.2706 3.54074 16.2977 4.25812 15.5803C4.9755 14.8629 5.94847 14.4599 6.96299 14.4599H10.7883C11.8028 14.4599 12.7757 14.8629 13.4931 15.5803C14.2105 16.2977 14.6135 17.2706 14.6135 18.2852V20.1978" stroke="#F0513F" stroke-width="1.6394" stroke-linecap="round" stroke-linejoin="round"/>
<path id="Vector_3" d="M15.5698 10.6346L17.4825 12.5472L21.3077 8.72198" stroke="#F0513F" stroke-width="1.6394" stroke-linecap="round" stroke-linejoin="round"/>
</g>
</svg>
